<svg xmlns="http://www.w3.org/2000/svg" xml:space="preserve" width="500" height="90.633003" viewBox="0 0 500 90.633005"><defs><clipPath id="a" clipPathUnits="userSpaceOnUse"><path d="M0 90.633h500.393V0H0Z"/></clipPath></defs><g clip-path="url(#a)" transform="matrix(1 0 0 -1 -.393 90.633)"><path d="M0 0h-21.711c1.279 2.661 2.909 4.641 4.946 5.828a6.713 6.713 0 0 0 3.383.893H-.914c.862 0 1.697-.382 2.2-1.081C2.41 4.077 1.329 2.064 0 0m21.56 12.268c-.186 3.206-2.227 5.329-5.422 5.33h-33.377c-5.86 0-10.344-1.75-14.651-6.817-1.567-1.846-2.884-3.891-3.969-6.055l-9.447-18.834c-.811-1.619-1.254-3.407-1.208-5.217.082-3.202 1.548-5.478 5.843-5.478H3.978l5.837 11.229H-24.89c-1.686 0-2.563.806-2.137 2.544.077.309.192.606.33.893l3.351 6.998h38.202l5.762 11.17c.676 1.308 1.027 2.768.942 4.237" style="fill:#0059e1;fill-opacity:1;fill-rule:nonzero;stroke:none" transform="translate(289.236 24.82)"/><path d="M0 0a6.713 6.713 0 0 0 3.383.893h12.468c.862 0 1.697-.381 2.2-1.081 1.123-1.563.042-3.576-1.286-5.64H-4.946C-3.667-3.167-2.037-1.187 0 0m89.11 11.771L74.502-16.324a6.913 6.913 0 0 0-1.453-1.928c-1.17-1.064-2.527-1.546-4.067-1.458l16.05 31.481H69.646L55.659-15.533a9.672 9.672 0 0 0-1.087-1.697c-1.358-1.673-3.01-2.532-4.988-2.48l15.95 31.481H50.345L34.361-19.401H-8.126c-1.685 0-2.562.805-2.136 2.543.077.309.192.607.33.893l3.351 6.998h38.202l5.762 11.17c.676 1.308 1.027 2.769.942 4.237-.186 3.206-2.228 5.329-5.422 5.331H-.474c-5.86 0-10.344-1.751-14.652-6.818-1.566-1.846-2.884-3.891-3.968-6.055l-9.447-18.833c-.811-1.619-1.254-3.407-1.208-5.218.082-3.202 1.548-5.478 5.843-5.478h88.297c2.475 0 4.94.385 7.272 1.21 7.23 2.556 14.625 8.22 19.608 15.775a31.744 31.744 0 0 1 1.793 3.116l11.334 22.301z" style="fill:#0059e1;fill-opacity:1;fill-rule:nonzero;stroke:none" transform="translate(105.14 30.647)"/><path d="M0 0h17.427c1.53 0 2.598.614 3.511 1.467.805.752 1.454 1.657 1.956 2.638l21.868 42.691h16.624L38.011.953c-1.528-2.998-3.603-5.697-6.173-7.87-3.549-3-7.392-4.579-10.927-4.385H-5.731Z" style="fill:#0059e1;fill-opacity:1;fill-rule:nonzero;stroke:none" transform="translate(199.64 11.318)"/><path d="M0 0a7.21 7.21 0 0 0-6.431-3.95h-13.09c-1.323 0-2.156 1.01-2.251 2.249-.045.599.11 1.197.4 1.723l1.446 2.628L3.636 7.177zm114.26 15.044a4.984 4.984 0 0 0 3.319 1.252h31.766l5.736 11.119h-43.906c-2.369 0-4.715-.521-6.842-1.564-5.819-2.853-10.061-8.344-13.04-15.947-.46-1.175-.735-2.42-.727-3.684.014-2.316.896-3.959 2.668-4.912.891-.478 1.9-.698 2.91-.698h23.071a.873.873 0 0 0 .655-.292c.807-.912.374-1.914-.648-2.96a3.798 3.798 0 0 0-2.717-1.126H76.324l10.773 20.933c.938 1.82 1.256 3.911.808 5.908-.588 2.618-2.263 4.342-5.126 4.342H49.8c-7.858 0-12.355-3.198-15.907-7.788-1.32-1.707-2.445-3.554-3.413-5.482L21.51-3.768h-6.667l11.073 21.381c.703 1.359 1.055 2.884.932 4.41-.266 3.281-2.415 5.392-5.454 5.392h-45.481l-5.638-11.054H4.397c.709 0 1.403-.305 1.827-.873.465-.623.497-1.386.292-2.229a1.453 1.453 0 0 0-1.137-1.075l-41.437-8.157-4.661-9.313a9.63 9.63 0 0 1-.884-2.574c-.754-4.13 1.535-7.126 6.049-7.126h68.04l13.812 27.402a7.235 7.235 0 0 0 6.46 3.979h12.988c1.82 0 2.995-1.923 2.167-3.543L53.675-14.986h69.129c1.075 0 2.151.125 3.191.4 8.178 2.151 13.393 8.928 16.551 18.413 1.036 4.725-.415 7.153-3.757 7.834a8.938 8.938 0 0 1-1.766.164h-22.682a.972.972 0 0 0-.829.461c-.635 1.031-.188 1.926.748 2.758" style="fill:#0059e1;fill-opacity:1;fill-rule:nonzero;stroke:none" transform="translate(345.311 15.002)"/><path d="M0 0c-71.988 15.818-147.867 25.246-212.845 24.068l-.046-.002c-40.751-1.429-81.956-6.134-114.582-19.202-10.812-4.542-20.268-9.949-28.126-16.294-.659-.504-1.314-1.07-1.993-1.658-8.559-7.411-17.286-21.53-17.479-22.046-.004-.009-.008-.013-.008-.013l-9.919-19.235h-7.184l-21.313 33.602-17.088-33.602h-14.69l29.778 58.185h6.766l24.937-26.297c10.446 17.031 30.191 30.071 55.865 39.43l.013.006.039.014c1.048.419 17.543 6.95 32.518 9.391 1.215.2 2.428.41 3.634.659C-204.766 45.019-80.587 33.543 0 0" style="fill:#0059e1;fill-opacity:1;fill-rule:nonzero;stroke:none" transform="translate(445.666 55.15)"/><path d="M0 0a84.158 84.158 0 0 1-1.993-1.658C-1.323-1.061-.659-.504 0 0" style="fill:#0059e1;fill-opacity:1;fill-rule:nonzero;stroke:none" transform="translate(90.067 43.72)"/></g></svg>