<svg xmlns="http://www.w3.org/2000/svg" xml:space="preserve" width="500" height="78.542999" viewBox="0 0 500 78.542999"><defs><clipPath id="a" clipPathUnits="userSpaceOnUse"><path d="M0 612h792V0H0Z"/></clipPath></defs><g clip-path="url(#a)" style="fill:#fff;fill-opacity:1" transform="matrix(.84664 0 0 -.84664 -70.556 390.982)"><g style="fill:#fff;fill-opacity:1"><path d="m0 0-37.64-41.71c-.05-.08-5.69-7.63-16.8-7.3h-.08l-.09-.01c-.06-.02-5.88-1.15-8.31 1.54-1.27 1.41-1.42 3.69-.46 6.8 3.66 11.83 4.55 14.33 4.56 14.36l1.66 4.65-2.97-3.95c-.12-.16-11.84-15.69-17.43-19.64-5.69-4.01-10.6-4.01-15.81-4.01-3.28 0-5.29.69-6.33 2.18-1.3 1.87-1.1 5.15.6 9.76 4.06 11 9.14 24.87 9.14 24.87l.37 1.01h-47.36l-2.88-5.05h33.79l-7.55-12.55h-34.68l-4.13-6.74h39.44l-7.4-12.38h-44.34c-.43.09-3.15.75-4.08 2.82-.67 1.47-.29 3.38 1.1 5.69 4.84 8.02 21.3 33.4 21.47 33.65.05.07 5.01 7.47 14.76 7.27 9.37-.15 53.32-.03 60.84 0l-15.04-39.52 36.09 39.35h13.21l-11.83-39.62 35.67 39.62h10.46l.21.2c.3.28 7.28 6.88 6.15 15.01-.75 5.47-4.99 10.22-12.58 14.13-23.32 11.99-62.03 3.7-62.38 3.62-.35-.05-35.99-5.86-73.6-30.65-13.32-9.7-24.2-21.67-32.94-31.28-6.68-7.35-12.46-13.71-17.59-17.27-.87-.59-1.77-1.25-2.93-2.13-2.14-1.62-5.27-3.33-7.29-3.05-1.34 2.25 1.87 5.92 5.54 9.77l20.27 17.4.07.17c1.59 3.72 1.63 9.99 1.67 17.24.02 2.73.04 5.54.14 8.39.26 7.4 2 14.15 5.17 20.06 1.01 1.89 2.15 3.66 3.37 5.26l2.03 2.68-2.98-1.55c-8.13-4.24-17.91-16.59-27.36-28.53-2.62-3.32-5.33-6.74-7.97-9.94a80.53 80.53 0 0 0-8.68-9.01c-13.59-12.05-28.3-23.48-58.5-30.83-1.16-.03-2.01.29-2.59 1.01-.24.68-.39 1.38 1.8 2.24 26.5 10.91 47.48 24.14 62.36 39.33 30.71 33.81 42.72 44.1 55.89 47.86 1.15.32 2.25.22 3.1-.29.58-.35.73-.94.75-1.37.06-1.06-.54-2.23-1.5-2.95-.05-.04-.09-.08-.13-.12-.15-.12-.31-.23-.5-.33l-.15-.11c-.65-.46-1.54-.56-1.71-.57l.07-.75-.2.74-.32-.03c-.17-.01-.27-.02-.28-.02l-.15-.01c-1.73-.12-4.09-.29-6.5-2.72-12.55-14.19-12.25-29.48-11.93-45.67.03-1.45.06-2.91.08-4.38l.02-1.6 18.91 16.21c10.39 8.9 21.67 16.4 33.53 22.32 14.4 7.17 37.01 16.63 62.94 20.95 47.63 7.94 63.26-11.69 63.45-11.94C5.17 28.06 15.86 15.69 0 0" style="fill:#fff;fill-opacity:1;fill-rule:nonzero;stroke:none" transform="translate(358.288 419.394)"/></g><g style="fill:#fff;fill-opacity:1"><path d="M0 0h-19.77l11.69 13.13H4.18Zm14.17 25.46H-4.57c-1.33 0-3.23-.72-5.49-2.07-2.21-1.34-4.33-3.07-6.29-5.15l-28.18-29.83h-46.88l4.13 6.74h34.68l7.55 12.55h-33.79l2.89 5.05h40.27l7.76 12.66c-16.37-.03-36.5-.05-42.54.05-9.79.21-14.71-7.2-14.76-7.27-.17-.25-16.63-25.63-21.47-33.65-1.39-2.3-1.77-4.22-1.11-5.68.93-2.07 3.66-2.74 4.1-2.83h62.01l10.47 11.52h26.94l-3.7-11.52H6.51c1.43 4.64 11.75 38.22 12.82 43.31.95 4.51-4.43 5.95-5.16 6.12" style="fill:#fff;fill-opacity:1;fill-rule:nonzero;stroke:none" transform="translate(501.208 395.195)"/></g><g style="fill:#fff;fill-opacity:1"><path d="M0 0c-3.15-3.87-11.24-11.93-19.07-19.73-6.38-6.36-12.99-12.94-16.62-16.97-2.88-3.2-6.58-6.04-10.15-8.39a90.589 90.589 0 0 0-9.46-5.41c-2.83-1.41-5.86-2.14-8.82-2.14-.29 0-.59.01-.88.02-3.56.19-5.91 1.33-7.01 3.4-1.45 2.73-.47 6.94 2.9 12.51C-57.57-17.65-3.13.42-.81 1.18l2.43.8zm253.56 10c-1.08.11-2.01.7-2.57 1.63-.56.92-.64 2.02-.23 3.02l4.9 12.11-2.07.13-4.98-9.91a12.83 12.83 0 0 0-11.49-7.1l-48.62-.12-.14.58c-.05.21-5.99 21.23-70.77 18.67-.42 0-39.55-.31-94.63-16.6l-2.75-.81 6.76 6.93.16.06c7.71 2.67 19.62 8.38 18.77 12.32-.12.56-.39.73-.61.82-2.49 1.04-10.46-4.08-15.73-7.47-1.6-1.03-3.12-2.01-4.31-2.71a8.836 8.836 0 0 0-3.46-1.14c-20.6-2.05-36.72 2.23-47.91 12.72-1.27 1.02-2.19 1.37-3.09 1.17-.25-.19-.57-.59.1-1.8 8.88-12.64 23.38-17.83 45.58-16.25l2.27.16L8.08 7.32l-.16-.05c-.46-.14-46.93-14.05-71.38-34.58-.11-.1-11.49-9.86-10.87-19.98.13-2.11.97-3.83 2.51-5.11 4.65-3.86 14.04-2.76 14.14-2.75.12.02 10.99 1.27 20.95 9.68C-26.48-36.8-11.26-21.7-3.47-13.02 4.35-4.29 15.87 7.24 15.99 7.35l.11.11.14.06c.36.14 36.03 14.06 82.38 16.24 47.71 2.25 71.16.98 84.02-12.53l1.19-1.25-48.93-.53-.21-.99 51.59-1.29.21-.34c.13-.19 3.04-4.86.72-10.56l-.19-.47h-10.29l-19.94-32.55-.54 1.44c-.34.89-8.23 21.86-9.23 25.37l-.03.11c-1 3.47-1.71 5.97-8.09 5.93-2.52-.02-5.12-1.03-7.73-2.99-2.06-1.54-3.86-3.56-5.37-6l-25.06-40.74h12.84l19.75 32.25.53-1.45c.09-.23 8.67-23.32 10.16-27.91 1.32-4 5.54-3.6 5.72-3.58 8.73 0 13.75 7.51 13.8 7.59l26.08 43.32s.94 1.84.94 5.8c0 1.11-.08 2.37-.26 3.81l-.11.85 47.17-.12c1.13 0 2.17-.57 2.79-1.51.61-.95.71-2.13.26-3.16l-2.87-6.49-.32-.32-.32-.01h-33.08c-.39.03-7.79.67-12.9-7.51-5.38-8.59-8.67-14.18-8.7-14.24 0 0-1.07-2.18-1.07-4.29 0-.78.15-1.54.55-2.19.75-1.21 2.33-1.82 4.71-1.82h37.1l-4.16-6.94h-46.07l-7.63-12.16h52.07s7.96.92 12.66 8.7A917.27 917.27 0 0 1 239-30.35c.89 1.56 1.14 3.28.68 4.85-.64 2.18-2.38 3.29-5.16 3.29h-37.28l3.63 5.61h45.92l7.52 12.04h-12.45v.94l.09.18 2.43 4.5c1.98 3.7 5.82 6.01 10.01 6.04l9.1.07.37 1.83z" style="fill:#fff;fill-opacity:1;fill-rule:nonzero;stroke:none" transform="translate(410.048 424.855)"/></g></g></svg>