<svg xmlns="http://www.w3.org/2000/svg" xml:space="preserve" width="500" height="213.58299" viewBox="0 0 500 213.58299"><defs><clipPath id="a" clipPathUnits="userSpaceOnUse"><path d="M0 612h792V0H0Z"/></clipPath></defs><g clip-path="url(#a)" transform="matrix(.91935 0 0 -.91935 -115.256 422.772)"><path d="m0 0 1.714-.343L28.804 0c3.198-.916 4.8-2.116 4.8-3.6 1.372-6.288 2.342-9.888 2.916-10.802-.459-.115-.687-.343-.687-.685 1.029-1.144 2.058-5.203 3.086-12.174.571 0 1.887-4.688 3.944-14.059.686-1.715 1.656-5.888 2.915-12.516 1.599-5.486 2.628-9.773 3.086-12.859.228 0 .343-.115.343-.343l-.686-.857v-.686c.914 0 1.999-1.945 3.258-5.829h.685c-.115 1.827.172 3.199.858 4.115v34.119l-.343 18.688.686 1.029v.343l-.686.857v4.801l.686 1.028v1.372c0 .227-.116.343-.343.343l.343.686-.172 3.257c0 1.942 1.029 3.086 3.086 3.429l4.972.172 1.029.686C74.124.172 79.897.113 79.897.343c2.057-.23 3.086-.458 3.086-.686l.686.343c1.714.113 2.628-1.773 2.743-5.658l-.343-2.057c0-.231.113-.343.343-.343l-.343-2.4.343-185.512-.686-1.03v-3.428c0-.231.113-.343.343-.343l-.343-.686v-3.943c0-.23.113-.344.343-.344l-.343-.685c0-.231.113-.343.343-.343l-.343-.686.172-12.516c.112-4.688-.172-7.088-.857-7.201l.342-.514c-.573-1.83-2.116-2.803-4.629-2.915-12.575.112-22.289.112-29.147 0 0 .455-.23.686-.686.686h-1.028l-1.029-.686c-2.057 1.029-3.086 2.17-3.086 3.429-1.144 4.57-1.715 7.6-1.715 9.088v1.028c-.458.913-1.543 4.742-3.257 11.487h.342c-.916 2.743-1.371 4.972-1.371 6.687v1.029c-1.259 1.714-2.687 7.429-4.286 17.145v1.029c-.458.798-1.2 3.142-2.229 7.029v2.058c-1.144 3.086-2.229 7.372-3.258 12.858-.343 0-1.028 2.915-2.057 8.745-.458 0-.917.97-1.372 2.914l-.686.343c0-.573-.23-1.143-.685-1.714 0-.573-.059-3.601-.172-9.088-.458 0-.686-.23-.686-.685v-1.715l.686-.856v-2.401l-.686-1.029v-.686l.686-1.028c-.458-.115-.686-.344-.686-.687l.343-22.289.686-1.028c-.686 0-.973-2.571-.857-7.715v-7.201c0-.115-.231-.458-.686-1.029v-.343l.686-1.028-.343-20.232c0-2.515-1.658-3.772-4.972-3.772h-2.744l-1.028-.686-.343.686c-.231 0-.343-.115-.343-.343l-1.715.343-15.945-.171-.343-.172v.343h-.343v-.343h-6.001v3.429L-9.773-7.544c.228 4.115 1.372 6.516 3.429 7.201h5.487C-.287-.343 0-.23 0 0" style="fill:#f79ce1;fill-opacity:1;fill-rule:nonzero;stroke:none" transform="translate(135.14 458.487)"/><path d="M0 0c.343 0 .627.343.857 1.029v.343c0 .112-.23.455-.686 1.028.456 1.142.858 1.715 1.201 1.715l1.371.172c2.285.227 5.886.455 10.802.685 0-.573.455-.916 1.372-1.028l1.714 1.2c.113-.458.343-.63.686-.515h1.028c4.228.343 6.743.228 7.544-.342l1.029.171c.228 0 .284.112.171.343.456-.231.799-.343 1.029-.343 5.487.456 8.23.343 8.23-.343.228.113.343.284.343.514 2.743-.23 4.171-1.259 4.286-3.086l6.172-93.441.858-1.029c-.458 0-.686-.231-.686-.686l.172-1.372 1.028.172c.914 2.628 1.428 5.599 1.543 8.916C57.721-25.776 62.693 4.399 64.98 4.629h3.43l4.972.515 1.2-.686 6.344.514c.227.113.343.057.343-.171.228 0 .342.113.342.343 6.057.112 9.2-.973 9.431-3.258l.514-4.801c0-.23.112-.342.343-.342l9.944-82.469.343-3.429c0-.343.343-.63 1.029-.858h.685l8.23 88.299c-.23 2.4.742 4.514 2.915 6.343l7.372.686 1.029-.686c7.086.456 11.372.743 12.859.858.112-.458.399-.686.857-.686l1.029.171c1.827.113 4.857.284 9.087.515 0-.458 1.141-.745 3.429-.858l1.543-1.2v-.685c0-4.689-3.943-43.322-11.83-115.903-8.23-74.641-13.489-112.073-15.774-112.301-4.916-.115-8.401-.287-10.458-.515-.116.455-.515.627-1.201.515-1.487-.115-4.516-.23-9.087-.343 0 .455-.23.626-.685.514l-3.772-.343c-.459 0-.917.112-1.372.343l-.686-.514c-2.288.113-4.058.113-5.315 0l-.686-.172c-.685.343-2.459.627-5.315.858-.458.227-1.088 1.312-1.885 3.258v.342l-8.916 74.582c-.458 0-.745.172-.857.515l-.172 1.714h-.857l-9.087-76.468-1.029-2.4c-1.029-1.259-1.658-1.886-1.886-1.886l-4.8-.515-1.029.686c-4.23-.231-6.859-.343-7.887-.343 0 .455-.23.627-.686.515l-7.029-.515c-.231-.115-.344-.058-.344.172-.23 0-.342-.115-.342-.343-2.516 0-4.003.228-4.458.686l-1.029-.172a58.615 58.615 0 0 0-4.115-.171c-4.688 0-7.144.857-7.372 2.571-.343 0-.63.572-.857 1.715z" style="fill:#81e3f9;fill-opacity:1;fill-rule:nonzero;stroke:none" transform="translate(231.489 453.515)"/><path d="M0 0c.798-3.086 1.141-6.973 1.028-11.659l.172-165.28c0-1.144-.172-2.516-.514-4.115.227-.23.112-2.687-.343-7.373-.115-4.344-.403-6.802-.858-7.372.455-.458.113-2.46-1.028-6.001 0-2.631-.857-5.546-2.572-8.744-1.144-3.772-3.201-7.316-6.172-10.63-4.346-4.801-9.717-7.603-16.117-8.401-4.002-.573-7.488-.858-10.458-.858-2.288 0-4.231.172-5.83.515-7.887 1.256-13.261 3.143-16.117 5.657l-4.629 4.287c-2.516 2.286-4.859 5.658-7.029 10.116-2.173 7.886-3.202 13.772-3.087 17.66-.916 5.371-1.2 8.229-.857 8.572l-.343 9.43c.228 2.512.228 3.828 0 3.943.113 14.06 0 25.488-.343 34.291.456.455.514 2.971.172 7.544v8.23c0 8.457.284 13.258.857 14.401l.514.515c.686.798 5.372 1.029 14.059.686l5.487.514c2.401.686 3.772 1.2 4.114 1.543 1.142.228 2.8 1.372 4.973 3.429a40.17 40.17 0 0 0 3.429 4.287c-.231.455.227 2.914 1.372 7.372l-.172 3.772v66.695c-.458 9.714-.115 15.201 1.029 16.46.913 1.028 3.429 1.543 7.544 1.543h30.176C-1.2.343-.687 0 0 0" style="fill:#ce81ea;fill-opacity:1;fill-rule:nonzero;stroke:none" transform="translate(456.125 457.973)"/><path d="m0 0 1.715-.343L28.805 0c3.198-.916 4.8-2.116 4.8-3.6 1.372-6.288 2.341-9.888 2.915-10.802-.458-.115-.686-.343-.686-.685 1.028-1.144 2.058-5.203 3.086-12.174.571 0 1.886-4.688 3.943-14.059.687-1.715 1.657-5.888 2.915-12.516 1.6-5.486 2.628-9.773 3.086-12.859.228 0 .343-.115.343-.343l-.686-.857v-.686c.914 0 1.999-1.945 3.258-5.829h.686c-.115 1.827.172 3.199.857 4.115v34.119l-.343 18.688.686 1.029v.343l-.686.857v4.801l.686 1.028v1.372c0 .227-.115.343-.343.343l.343.686-.172 3.257c0 1.942 1.029 3.086 3.087 3.429l4.972.172 1.029.686C74.124.172 79.897.113 79.897.343c2.058-.23 3.086-.458 3.086-.686l.686.343c1.715.113 2.629-1.773 2.743-5.658l-.343-2.057c0-.231.114-.343.343-.343l-.343-2.4.343-185.512-.685-1.03v-3.428c0-.231.112-.343.342-.343l-.342-.686v-3.943c0-.23.112-.344.342-.344l-.342-.685c0-.231.112-.343.342-.343l-.342-.686.171-12.516c.113-4.688-.171-7.088-.857-7.201l.343-.514c-.573-1.83-2.116-2.803-4.629-2.915-12.575.112-22.289.112-29.148 0 0 .455-.23.686-.685.686h-1.028l-1.03-.686c-2.057 1.029-3.086 2.17-3.086 3.429-1.143 4.57-1.715 7.6-1.715 9.088v1.028c-.458.913-1.542 4.742-3.257 11.487h.343c-.917 2.743-1.372 4.972-1.372 6.687v1.029c-1.258 1.714-2.686 7.429-4.286 17.145v1.029c-.458.798-1.2 3.142-2.229 7.029v2.058c-1.144 3.086-2.229 7.372-3.257 12.858-.343 0-1.029 2.915-2.058 8.745-.458 0-.916.97-1.372 2.914l-.685.343c0-.573-.231-1.143-.686-1.714 0-.573-.059-3.601-.172-9.088-.458 0-.685-.23-.685-.685v-1.715l.685-.856v-2.401l-.685-1.029v-.686l.685-1.028c-.458-.115-.685-.344-.685-.687l.342-22.289.686-1.028c-.686 0-.972-2.571-.856-7.715v-7.201c0-.115-.231-.458-.687-1.029v-.343l.687-1.028-.344-20.232c0-2.515-1.658-3.772-4.972-3.772H16.46l-1.029-.686-.343.686c-.231 0-.343-.115-.343-.343l-1.714.343-15.945-.171-.343-.172v.343h-.344v-.343h-6v3.429L-9.772-7.544C-9.545-3.429-8.4-1.028-6.344-.343h5.488C-.286-.343 0-.23 0 0" style="fill:#f99043;fill-opacity:1;fill-rule:nonzero;stroke:none" transform="translate(477.893 458.487)"/><path d="m0 0 5.486 7.373c.114.112.229.112.344 0 .228.228.228.399 0 .514 5.144 4.686 11.6 8.286 19.374 10.801 3.198.229 6.229.799 9.087 1.715 12.002-.23 20.858-2.4 26.575-6.515l1.886-1.543h1.2l1.543-1.2c.456-1.029 2.342-3.258 5.658-6.687.113-1.144 1.201-3.03 3.258-5.658.455-1.83 1.428-4.115 2.914-6.858l1.715-6.172c.455-3.544 1.028-6.06 1.715-7.544 0-2.631.171-4.86.514-6.687.571-3.316.857-8.573.857-15.774l-.686-1.028c-1.372-.686-3.659-.973-6.858-.858a94.261 94.261 0 0 0-9.944.172c-.343-.458-2.459-.402-6.344.171-3.316-.343-5.43-.23-6.344.343l-1.028.857c-.343 1.372-.573 7.258-.686 17.66-1.144 6.4-3.087 10.63-5.83 12.688-2.287 1.599-5.143 1.313-8.572-.858l-2.572-3.429c-1.487-5.374-1.543-9.832-.171-13.373-1.259-1.714.857-6.746 6.344-15.088 1.599-1.144 2.799-2.459 3.6-3.943 2.743-2.058 4.228-3.544 4.458-4.458 3.086-2.631 5.657-4.688 7.715-6.172l.515-.343.342-1.2 6.859-4.972 1.371-1.544c.227-.115.399-.058.515.172l1.2-1.372 2.743-1.886c.112-.686 2.058-2.973 5.829-6.858-.23-.23.857-1.715 3.258-4.458l2.572-5.315c2.856-7.544 4.972-15.088 6.344-22.631 1.483-9.031 2.228-15.147 2.228-18.346v-1.2l.172-10.63-.686-12.345c-.343-.458-.801-2.974-1.371-7.544-.458-4.916-2.631-12.403-6.516-22.46-2.4-4.458-3.601-7.029-3.601-7.716l-1.028-.343-.343-.342v-1.2l-5.143-7.03c-.573-.115-1.658-1.029-3.258-2.743-.343.228-2.572-1.088-6.687-3.943l-6.001-1.372c-.573-.686-3.831-1.316-9.773-1.886-3.544 0-5.944-.231-7.2-.686-5.374.455-11.547.399-18.518-.172-4.572.343-9.6.343-15.088 0-.573.343-1.543.515-2.914.515l-1.886 1.371c-.343.343-.574 1.999-.686 4.973l-.343.343-.172 109.215.687 6.172 1.028 1.201c2.17.798 4.458 1.084 6.859.856.112.113 1.085.113 2.915 0l.342-.171-.514-.514-.515.343-.343-.514.515-.515c3.885 1.371 6.229 1.771 7.029 1.2l4.629 1.2 1.887.686 2.4 3.258c.798 3.086-.115 6.571-2.743 10.459-2.4 3.198-6.403 7.656-12.002 13.373l.171.171c-.115.228-.23.228-.343 0C4-52.237.172-47.208-1.543-43.206c-.916.571-2.173 4.57-3.771 12.002l-.515 9.601c.112 4.801 1.312 10.459 3.6 16.974l1.201 1.543A5.02 5.02 0 0 0 0 0" style="fill:#fe394c;fill-opacity:1;fill-rule:nonzero;stroke:none" transform="translate(580.071 439.456)"/></g></svg>