<?xml version="1.0" standalone="no"?>
<!DOCTYPE svg PUBLIC "-//W3C//DTD SVG 20010904//EN"
 "http://www.w3.org/TR/2001/REC-SVG-20010904/DTD/svg10.dtd">
<svg version="1.0" xmlns="http://www.w3.org/2000/svg"
 width="400.000000pt" height="161.000000pt" viewBox="0 0 400.000000 161.000000"
 preserveAspectRatio="xMidYMid meet">

<g transform="translate(0.000000,161.000000) scale(0.100000,-0.100000)"
fill="#000000" stroke="none">
<path d="M910 1467 c-14 -7 -35 -32 -47 -56 l-22 -43 -195 1 c-210 2 -239 -3
-270 -52 -23 -35 -136 -351 -136 -380 0 -14 -10 -41 -23 -60 -31 -47 -61 -140
-53 -170 3 -14 18 -40 33 -57 l27 -32 -27 -77 c-36 -102 -35 -122 11 -171 l39
-40 186 0 c151 0 193 3 220 16 31 15 36 15 65 0 25 -13 67 -16 233 -16 l201 0
-5 -22 c-20 -78 -19 -107 3 -142 43 -70 8 -66 606 -66 l541 0 35 32 c39 36 78
128 78 184 0 19 4 34 8 34 5 0 19 21 31 48 l22 47 564 0 564 0 30 29 c30 29
71 128 71 173 0 13 9 36 20 51 10 15 42 90 70 167 59 160 59 183 5 235 l-35
34 -175 0 c-96 0 -175 3 -175 6 0 3 16 52 37 110 42 121 40 145 -12 197 l-34
34 -188 -3 c-135 -3 -197 -8 -220 -18 -28 -12 -35 -12 -59 1 -25 13 -143 19
-214 11 -14 -2 -43 0 -66 3 -28 5 -50 3 -69 -8 -25 -13 -33 -13 -64 0 -23 10
-50 13 -80 8 -25 -3 -62 -5 -81 -4 -49 2 -568 1 -605 -1 -16 -1 -48 1 -71 5
-28 5 -50 3 -70 -7 -24 -13 -34 -13 -59 -2 -42 18 -608 19 -645 1z m2478 -79
c17 -15 15 -40 -10 -95 -12 -26 -22 -51 -22 -55 -1 -3 -5 -10 -10 -15 -5 -5
-6 -2 -1 6 5 9 4 12 -2 8 -14 -9 -63 -131 -63 -157 0 -19 7 -20 224 -20 186 0
226 -2 236 -15 10 -12 10 -18 -1 -32 -12 -14 -12 -16 1 -9 11 6 11 4 -1 -6 -9
-7 -33 -60 -54 -118 -43 -119 -43 -119 -76 -126 -13 -3 -28 -6 -34 -7 -5 -2
-16 -7 -24 -11 -10 -6 -12 -5 -7 2 4 7 3 12 -3 12 -5 0 -13 -5 -16 -10 -3 -5
-13 -10 -21 -10 -9 0 -12 5 -8 11 4 8 0 8 -15 0 -16 -9 -21 -9 -21 1 0 8 -3 9
-8 3 -4 -6 -20 -12 -37 -13 -21 -1 -26 1 -16 7 10 6 2 9 -24 9 -26 0 -33 -3
-24 -9 23 -15 0 -10 -31 6 -35 18 -36 28 -10 97 28 75 27 77 -29 75 -37 -2
-47 -5 -43 -16 4 -10 1 -12 -8 -6 -9 6 -11 4 -6 -4 5 -7 0 -19 -10 -27 -11 -9
-13 -13 -6 -9 6 3 12 1 12 -4 0 -6 -5 -11 -11 -11 -5 0 -7 -4 -4 -10 3 -5 1
-10 -4 -10 -6 0 -11 -9 -11 -20 0 -11 -6 -20 -14 -20 -8 0 -17 -8 -20 -17 -5
-15 -17 -18 -78 -16 -40 1 -73 3 -73 4 0 1 -38 3 -85 4 -179 6 -188 7 -182 23
3 10 1 13 -6 8 -6 -3 -13 -2 -17 3 -3 6 -12 8 -20 5 -8 -4 -12 -11 -8 -17 3
-6 1 -7 -6 -3 -9 6 -9 11 1 24 11 14 10 15 -6 9 -15 -6 -17 -3 -13 12 3 13 0
18 -12 16 -26 -4 -42 14 -30 36 8 17 22 19 108 19 81 0 101 3 114 18 14 15 59
132 149 382 16 47 35 90 40 97 7 8 52 13 136 15 147 3 202 0 220 -14z m-2349
-58 c29 -54 36 -61 43 -45 4 11 17 41 27 68 15 34 26 47 41 47 11 0 20 -6 20
-12 0 -7 -21 -70 -47 -140 -48 -127 -48 -128 -80 -128 -29 0 -35 6 -70 70
l-38 71 -23 -71 c-21 -61 -27 -70 -48 -70 -13 0 -24 3 -24 6 0 8 66 194 86
242 12 29 17 33 46 30 29 -3 37 -10 67 -68z m377 54 c-3 -9 -6 -20 -6 -25 0
-5 -27 -9 -59 -9 -57 0 -59 -1 -70 -30 l-10 -30 44 0 c47 0 59 -8 49 -34 -5
-12 -20 -16 -59 -16 -51 0 -54 -1 -64 -32 -14 -39 -4 -48 57 -48 30 0 42 -4
42 -14 0 -23 -13 -26 -112 -27 -121 -1 -118 -1 -118 14 0 6 21 69 47 139 l48
128 109 0 c94 0 107 -2 102 -16z m107 10 c3 -3 -3 -31 -14 -62 l-19 -57 28 33
c34 41 73 42 82 2 6 -22 8 -19 24 28 18 54 34 69 61 58 13 -4 13 -10 0 -46 -8
-22 -12 -40 -8 -40 3 0 1 -6 -4 -12 -6 -7 -20 -50 -33 -95 l-24 -83 -37 0
c-32 0 -38 4 -44 28 l-7 27 -22 -27 c-20 -25 -28 -28 -84 -28 -34 0 -62 4 -62
8 0 6 68 214 85 260 4 12 66 17 78 6z m384 -7 c-3 -8 -15 -52 -28 -98 -27
-102 -42 -134 -74 -155 -28 -18 -129 -24 -145 -8 -20 20 -1 41 37 40 l37 -1
34 118 35 117 55 0 c41 0 53 -3 49 -13z m241 -9 c-3 -20 -10 -23 -50 -26 -41
-3 -48 -6 -57 -33 -10 -28 -9 -29 24 -29 64 0 57 -47 -8 -52 -34 -3 -42 -7
-50 -31 -11 -35 -6 -41 40 -42 39 -2 48 -11 34 -33 -6 -10 -37 -13 -110 -14
-57 0 -105 2 -107 5 -3 3 51 206 71 265 3 8 35 12 110 12 105 0 106 0 103 -22z
m211 -7 l28 -30 -31 -110 c-30 -106 -42 -124 -73 -114 -8 3 -10 15 -6 34 l6
29 -55 0 c-53 0 -55 -1 -64 -32 -5 -18 -17 -32 -27 -34 -35 -5 -33 19 15 179
27 91 46 107 121 107 52 0 62 -3 86 -29z m177 -38 l47 -66 16 64 c13 53 20 65
39 67 27 4 27 0 1 -113 -42 -178 -36 -165 -72 -165 -29 0 -37 7 -68 56 -60 97
-54 96 -75 16 -16 -63 -21 -72 -41 -72 -28 0 -29 12 -3 110 11 41 25 96 31
123 10 44 12 47 44 47 30 0 38 -7 81 -67z m364 42 c0 -24 -3 -25 -61 -25 -51
0 -60 -3 -57 -17 2 -9 23 -29 48 -43 56 -33 69 -64 46 -112 -23 -47 -56 -60
-158 -62 -82 -1 -83 -1 -83 24 0 24 2 25 52 22 52 -3 93 10 93 29 0 5 -16 17
-35 24 -70 30 -96 93 -57 141 28 35 53 43 135 44 76 0 77 0 77 -25z m-2107
-105 c0 -8 -16 -56 -34 -107 -19 -50 -31 -94 -27 -98 3 -3 157 -6 342 -6 l336
0 16 -24 c14 -22 14 -27 -6 -64 -11 -23 -23 -41 -26 -41 -3 0 -2 6 2 13 4 6
-2 4 -13 -5 -17 -16 -43 -18 -219 -18 -121 0 -193 -4 -185 -9 9 -6 -18 -9 -72
-8 -47 0 -84 4 -82 7 2 4 -2 7 -10 7 -8 0 -12 -3 -10 -7 2 -3 -5 -6 -15 -6
-10 0 -17 3 -14 7 2 4 -17 7 -44 7 -140 -2 -302 6 -302 15 0 5 -7 6 -16 3 -8
-3 -13 -2 -10 3 3 4 -6 14 -20 22 -41 22 -46 41 -25 101 11 29 32 87 47 128
15 41 31 81 37 88 7 9 52 12 181 10 145 -3 171 -5 169 -18z m1353 -221 c16
-13 19 -49 3 -49 -5 0 -8 -4 -5 -9 3 -5 0 -23 -8 -41 -8 -21 -16 -28 -21 -21
-5 8 -11 9 -19 2 -7 -6 -56 -9 -116 -8 -81 2 -107 0 -121 -13 -25 -22 -62
-130 -55 -163 4 -19 2 -26 -5 -21 -8 4 -9 -1 -4 -16 4 -13 3 -20 -2 -17 -5 3
-14 -3 -21 -14 -7 -11 -8 -19 -2 -19 5 0 10 5 10 12 0 6 2 9 5 6 10 -9 -7 -38
-18 -31 -6 4 -8 -2 -5 -15 3 -12 2 -20 -3 -19 -4 1 -18 -18 -31 -43 l-23 -45
-92 -1 c-51 0 -91 2 -89 5 2 3 -7 7 -20 7 -15 1 -22 -2 -17 -10 4 -7 1 -6 -7
1 -11 10 -17 10 -29 0 -10 -7 -8 -2 3 11 16 18 17 30 3 20 -2 -2 -12 4 -22 12
-17 13 -18 13 -11 0 4 -8 0 -6 -8 4 -11 14 -16 15 -16 6 0 -11 -3 -10 -12 2
-7 9 -18 17 -25 19 -23 7 10 53 42 59 28 5 33 14 72 115 48 125 51 145 24 145
-11 0 -23 5 -26 10 -6 10 21 95 37 117 13 16 615 18 634 2z m437 -11 c13 -19
-3 -82 -28 -113 -9 -11 -14 -13 -10 -5 4 9 0 7 -9 -3 -21 -27 -98 -248 -92
-264 3 -8 2 -12 -3 -9 -5 3 -8 -9 -7 -27 1 -23 -3 -31 -13 -29 -11 2 -12 0 -3
-11 9 -10 8 -18 -4 -33 -8 -10 -12 -13 -8 -5 5 10 3 12 -5 6 -7 -4 -11 -16 -8
-26 3 -11 1 -17 -3 -14 -9 5 -26 -52 -21 -70 1 -5 0 -7 -4 -3 -4 4 -14 0 -22
-8 -11 -11 -33 -13 -101 -8 -48 3 -94 9 -102 13 -8 5 -27 7 -41 6 -23 -2 -26
2 -24 25 2 21 -2 26 -14 24 -9 -3 -22 0 -30 5 -16 10 -19 -2 100 321 23 63 51
140 62 170 11 30 24 61 30 68 7 9 51 12 180 10 145 -3 171 -5 180 -20z m-1238
-208 c15 -16 15 -24 5 -57 -7 -21 -16 -43 -21 -49 -5 -6 -6 -13 -3 -16 3 -3
-11 -8 -30 -10 -19 -2 -33 -1 -30 3 2 4 -12 7 -32 7 -29 0 -39 -6 -54 -31 -11
-17 -22 -44 -25 -59 -4 -15 -11 -28 -16 -28 -6 0 -8 -4 -4 -9 3 -5 -4 -35 -16
-65 -11 -31 -18 -60 -14 -66 3 -5 1 -10 -4 -10 -6 0 -11 -5 -11 -11 0 -5 5 -7
12 -3 7 4 8 3 4 -4 -8 -14 -158 -14 -194 -1 -15 6 -21 5 -17 -1 7 -11 -8 -14
-19 -3 -4 4 -30 8 -59 9 -76 2 -77 2 -77 24 0 12 18 70 41 130 22 60 38 114
34 120 -9 15 -95 9 -112 -8 -10 -11 -11 -17 -3 -22 13 -8 -6 -60 -27 -73 -17
-10 -17 -40 0 -32 6 4 1 -2 -12 -13 -16 -13 -22 -25 -18 -36 4 -9 3 -15 -2
-11 -5 3 -14 -10 -21 -29 -6 -19 -18 -37 -28 -41 -9 -3 -56 -5 -105 -4 -65 1
-87 5 -83 14 2 7 -1 12 -7 12 -54 -1 -63 8 -43 43 7 12 6 13 -4 3 -11 -10 -17
-10 -28 0 -13 10 -14 9 -3 -13 11 -24 11 -24 -3 -6 -9 11 -16 24 -16 29 0 4
-4 5 -10 2 -16 -10 -12 14 17 96 15 43 25 80 21 84 -3 3 -21 8 -39 10 -46 6
-52 16 -38 63 26 87 -18 80 563 81 490 0 515 -1 531 -19z m1275 6 c0 -3 -4 -8
-10 -11 -5 -3 -10 -1 -10 4 0 6 5 11 10 11 6 0 10 -2 10 -4z m-740 -161 c6
-15 17 -25 30 -25 13 0 24 10 30 25 11 30 46 34 66 8 15 -20 19 -47 5 -39 -11
7 -37 -23 -44 -51 -3 -13 -1 -26 4 -29 5 -3 9 -10 9 -15 0 -6 -5 -7 -10 -4 -6
4 -16 2 -23 -3 -25 -20 -65 -22 -103 -5 -22 9 -41 16 -44 16 -10 -3 -10 41 0
67 5 14 14 37 19 53 13 35 48 37 61 2z m1726 -10 c22 -16 11 -79 -16 -98 -11
-8 -17 -16 -14 -19 3 -3 -88 -7 -203 -7 -114 -1 -210 -6 -213 -10 -3 -5 -35
-8 -72 -8 -40 0 -65 4 -61 9 3 6 -4 5 -15 -1 -15 -8 -21 -8 -25 2 -3 9 -7 9
-19 -1 -11 -9 -18 -10 -23 -2 -9 15 -88 13 -79 -2 6 -10 4 -10 -7 0 -8 8 -45
12 -102 12 -48 0 -98 5 -109 11 -15 8 -19 8 -14 0 4 -6 2 -11 -3 -11 -6 0 -11
5 -11 12 0 6 -3 9 -6 5 -4 -3 -13 1 -21 9 -9 8 -22 13 -30 10 -8 -3 -12 -2 -9
3 3 5 -3 11 -15 14 -16 4 -19 11 -13 34 3 15 13 33 21 40 21 17 1035 16 1059
-2z m-1969 -219 c10 -4 9 -14 -3 -42 -28 -66 -40 -64 329 -64 318 0 335 -1
351 -19 15 -17 16 -25 6 -55 -6 -20 -16 -36 -22 -36 -7 0 -19 -7 -28 -15 -13
-11 -54 -14 -208 -15 -106 -1 -192 -5 -192 -9 0 -3 -11 -8 -26 -9 -17 -1 -23
2 -18 11 5 9 4 9 -6 0 -9 -8 -19 -9 -31 -3 -12 7 -20 6 -24 0 -4 -6 -12 -7
-18 -3 -16 10 -38 13 -33 4 3 -4 -4 -7 -14 -7 -10 0 -16 4 -14 8 3 4 0 8 -5 8
-6 0 -11 -4 -11 -8 0 -5 -7 -9 -15 -9 -8 0 -12 4 -9 9 3 4 -2 8 -11 8 -9 0
-13 -4 -10 -10 4 -6 -2 -7 -17 -1 -13 5 -71 9 -128 10 -119 2 -129 3 -149 15
-11 7 -12 6 -6 -5 7 -11 6 -12 -7 -2 -8 7 -19 9 -23 5 -5 -4 -5 -2 -2 4 4 7
-4 15 -20 19 -22 5 -24 8 -12 16 10 8 6 9 -16 5 -16 -3 -24 -3 -17 0 6 3 10 9
7 14 -6 11 44 158 60 174 11 10 50 12 172 10 87 -2 163 -6 170 -8z"/>
<path d="M2198 1286 c-17 -38 -4 -58 34 -54 27 2 34 9 42 36 11 38 3 50 -20
31 -13 -11 -18 -11 -21 -1 -7 19 -22 14 -35 -12z"/>
<path d="M2093 455 c0 -6 6 -12 12 -12 6 0 12 6 12 12 0 6 -6 12 -12 12 -6 0
-12 -6 -12 -12z"/>
</g>
</svg>
