<svg xmlns="http://www.w3.org/2000/svg" xml:space="preserve" width="500" height="136.58099" viewBox="0 0 500 136.58099"><defs><clipPath id="a" clipPathUnits="userSpaceOnUse"><path d="M0 792h1200V0H0Z"/></clipPath><clipPath id="b" clipPathUnits="userSpaceOnUse"><path d="M1007.67 433.92h5.97v-.55h-5.97z"/></clipPath></defs><g style="fill:#fff"><path d="M0 0h31.427L4.822-80.222 72.167 0h31.926L82.144-80.222 144.666 0h30.43L93.95-101.727H48.887l18.458 64.406L14.3-101.727h-44.564z" style="fill:#fff;fill-opacity:1;fill-rule:nonzero;stroke:none" transform="matrix(.43988 0 0 -.43988 167.956 44.166)"/></g><g style="fill:#fff"><path d="M0 0h-30.05L8.32 44.31Zm-4.42 64.18L-94.4-36.5h32.43l14.43 17.14h42.95L-7.64-36.5h31.75L42.1 64.18Z" style="fill:#fff;fill-opacity:1;fill-rule:nonzero;stroke:none" transform="matrix(.43988 0 0 -.43988 343.807 72.637)"/></g><g style="fill:#fff"><path d="m0 0 53.506 100.68h52.206l-6.874-79.172 40.873 79.172h30.655L117.231 0H64.468l7.431 79.659L30.469 0Z" style="fill:#fff;fill-opacity:1;fill-rule:nonzero;stroke:none" transform="matrix(.43988 0 0 -.43988 358.481 88.693)"/></g><g clip-path="url(#a)" style="fill:#fff" transform="matrix(.43988 0 0 -.43988 -12.443 279.735)"><g style="fill:#fff"><path d="M0 0a3.56 3.56 0 0 1 .448 1.975C.17 6.612-5.239 6.85-6.366 6.85H-22.226c-6.79 0-12.92-4.04-15.61-10.27l-.49-1.13c-.64-1.49-.95-3.11-.77-4.72.2-1.65.91-3.35 3.02-3.5 4.21-.31 41.19-1.13 48.58-5.96 7.4-4.83 1.24-18.08 1.24-18.08s-6.88-15.92-15.41-23.93c-8.53-8.01-17.26-13.55-39.65-14.48l-28.04.04-5.96.01c-28.08.97-20.85 16.79-20.85 16.79l6.37 16.03h29.89l-2.8-4.75c-2.08-3.54.47-7.99 4.57-7.99h22.64c3.16 0 6.23 1.08 8.69 3.07 3.35 2.681 7.384 7.022 7.836 12.537.084 1.02-.208 2.06-.924 2.792-.97.99-2.9 2.041-6.732 2.041-1.43 0-3.55.06-6.04.16-14.26.21-24.97 1.29-26.39 1.44-.11 0-.16.01-.16.01s-17.84 1.27-15.38 14.93c0 0 6.37 28.14 27.22 38.21 0 0 10.99 6.04 30.82 6.05H8.809c.863 0 1.726.015 2.589.035 4.212.101 21.154-.12 22.676-10.095 0 0 1.55-7.19-6.98-21.26h-30.1l3 5.16L0 0" style="fill:#fff;fill-opacity:1;fill-rule:nonzero;stroke:none" transform="translate(1082.993 508.84)"/></g><g style="fill:#fff"><g clip-path="url(#b)" opacity="0.5" style="fill:#fff"><g style="fill:#fff"><path d="M0 0c-1.03-.03-2.09-.04-3.18-.04-.96 0-1.89.02-2.78.05z" style="fill:#fff;fill-opacity:1;fill-rule:nonzero;stroke:none" transform="translate(1013.637 433.66)"/></g><g style="fill:#fff"><path d="M0 0c-1.03-.03-2.09-.04-3.18-.04-.96 0-1.89.02-2.78.05z" style="fill:#fff;stroke:#cb5352;stroke-width:.5;stroke-linecap:butt;stroke-linejoin:miter;stroke-miterlimit:10;stroke-dasharray:none;stroke-opacity:1" transform="translate(1013.637 433.66)"/></g></g></g><g style="fill:#fff"><path d="M0 0c-10.55-3.91-21.69-6.04-32.94-6.59-93.26-4.61-100.21 42.94-1.86 55.86 37.5 6.26 73.28 7.52 108.41 6.9C50.66 28.83 28.72 10.63 0 0m249.7 203.14 4.25 3.9.13.12 20.46 18.57a30.786 30.786 0 0 0 20.52 8.01l79.88.55c-6.84-8.59-18.77-15.76-36.15-21.89-15.58-5.49-31.85-8.73-48.32-10.01-15.05-1.18-28.47-.76-40.77.74zM723.5 88.17c-3.79 24.82-39.42 25.64-81.15 13.8l1.85-4.84c33.05 11.3 67.6 9.35 72.49-8.17.52-1.85.56-3.8.3-5.7-3.65-26.23-49.85-54.28-128.56-62.18C463.18 5.03 233.09 55.6 107.72 62.53c53.12 58.72 77.17 128.49 112.66 152.01-.55-10.32 5.23-14.74 13.87-16.75l-55.12-100.9h86.6l11.54 22.44h-54.31l11.11 20.14h49.7l10.29 18.25h-50.14l10.71 18.66h53.47l11.2 20.47c33.5 7.43 58.62 19.14 70.6 37.54l311.56 2.15v4.88l-306.79 2.49c.51.93.58 1.35.58 1.35 4.46 12.5-.89 23.28-13.44 32.79-34.64 25.56-133.83 25.68-237.69 11.48-82.44-10.42-180.3-45.51-263.64-88.38-.11-.05-.23-.11-.34-.17-20.48-10.37-64.43-37.92-109.73-66.46 18.21 19.64 31.49 43.95 41.34 71.52 14.68 40.84 34.7 61.78 66.3 76.28l-2.14 4.75c-30.71-5.42-69.43-24.53-120.85-65.36-9.19-7.3-18.06-15-26.5-23.15-44.23-42.78-90.82-76.75-141.36-95.89l1.43-4.04c41.58 7.61 95.14 39.57 138.53 71.29 14.14 10.65 69.86 63.45 99.8 86.73-11.88-13.46-23.45-37.83-35.98-73.06-9.71-29.87-36.24-58.55-75.46-85.67l4.51-5.46c49.28 33.22 97.59 62.26 145.33 88.79l-.37-.66-2.42-4.33-44.35-79.37h86.61l11.54 22.44h-54.32l11.11 20.14h49.71l10.28 18.25h-50.13l10.7 18.66h53.48l12.17 22.24h-61.95c115.8 59.7 222.26 92.53 392.55 90.91 59.62-1.05 102.39-16.5 91.18-44.27-.11-.31-.41-.74-.8-1.23l-81.58.66c-1.96.02-3.03 2.29-1.79 3.8l17.48 21.4-2.3 1.43-25.43-20.74a24.601 24.601 0 0 0-14.9-5.54l-42.19-1.17v-3.88l35.62-4.6c1.96-.25 2.87-2.56 1.63-4.08l-22.33-27.28c-19.08 4.02-20.85 13.28-7.6 20.66l-.85 2.71C182.34 215.66 131.4 126.22 80.67 64.82c-55.8 1.62-107.63-.31-147.93-12.52-42.49-11.09-61.78-37.89-33.74-54.54 16.59-10.49 48.62-10.41 81.56-7.69 65.85 7.78 83.2 25.36 120.58 65.4 78.51-5.62 170.69-19.7 279.18-36.02 81.44-11.48 144.7-17 208.98-9.84 94.78 10.44 139.21 49.47 134.2 78.56" style="fill:#fff;fill-opacity:1;fill-rule:nonzero;stroke:none" transform="translate(441.087 336.92)"/></g></g></svg>