<svg xmlns="http://www.w3.org/2000/svg" xml:space="preserve" width="500" height="256.81799" viewBox="0 0 499.99998 256.81799"><defs><clipPath id="a" clipPathUnits="userSpaceOnUse"><path d="M0 642h1124V0H0Z"/></clipPath></defs><g clip-path="url(#a)" transform="matrix(1.30957 0 0 -1.30957 -67.698 514.888)"><path d="M0 0c-99.091-26.266-188.489-13.354-199.67 28.838-11.185 42.195 60.08 97.691 159.171 123.957 99.092 26.266 188.489 13.354 199.674-28.838C170.357 81.762 99.095 26.266 0 0m168.995 133.982C155.671 177.84 60.099 187.64-44.478 155.877-149.055 124.113-223.029 62.812-209.71 18.958-196.39-24.9-100.815-34.701 3.763-2.937c104.573 31.763 178.551 93.065 165.232 136.919" style="fill:#ffa8e0;fill-opacity:1;fill-rule:nonzero;stroke:none" transform="translate(262.955 218.65)"/><path d="M0 0c-12.295 1.541-23.163 4.927-31.393 11.73C-41.516 27.972-46.26 48-45.156 72.142c5.364 7.802 11.379 14.18 18.238 18.713 4.408-31.596 13.915-55.179 30.173-71.192-11.931 25.928-16.552 53.763-15.053 83.193 3.789 3.787 8.857 6.996 15.053 9.696-1.492-48.479 7.709-87.963 31.392-116.01-6.247.638-12.909 1.2-19.934 1.695-18.578 13.561-33.02 36.817-41.631 61.294C-23.799 38.986-13.804 19.307 0 0" style="fill:#ffa8e0;fill-opacity:1;fill-rule:nonzero;stroke:none" transform="translate(122.71 213.406)"/><path d="M0 0c-3.523 16.591-4.253 37.965 1.739 41.347.593.331 1.308.384 1.898.042C5.65 40.221 6.941 35.809 7.976 31c.548-2.538.843-5.171.432-7.736C6.981 14.362 4.721 6.353 1.088-.167.822-.643.114-.529 0 0m21.704 14.613L10.949-7.624c3.439-10.162 4.585-17.425 2.907-20.529a2.215 2.215 0 0 0-2.469-1.103c-3.961.92-6.844 8.75-9.207 19.459 15.355 20.111 21.423 59.742 10.881 73.598-1.754 2.305-4.626 3.508-7.476 2.96-6.742-1.29-12.003-9.302-14.255-19.875-3.847-20.498-2.222-40.593 3.435-60.388C-.339-30.828 10.782-53.179 21.012-53.78a5.07 5.07 0 0 1 2.545.54c12.665 6.373 5.387 45.22-1.853 67.853" style="fill:#ffa8e0;fill-opacity:1;fill-rule:nonzero;stroke:none" transform="translate(144.465 270.075)"/><path d="m0 0 10.609 6.419c-1.091-18.161.434-39.546 5.134-60.632-.339 18.284.245 37.126 3.068 53.054L25.32.802c.651-11.138 2.391-20.931 5.26-29.331 1.15 16.555 3.532 31.516 7.935 43.863l11.946 3.388c-7.223-17.385-10.218-37.241-10.074-58.93l-11.323-5.706c-2.141 6.114-3.983 14.023-5.706 22.645-2.447-29.907 3.051-54.021 11.412-76.049l-12.927-12.303C6.33-76.69-.065-41.653 0 0" style="fill:#ffa8e0;fill-opacity:1;fill-rule:nonzero;stroke:none" transform="translate(166.429 344.643)"/><path d="M0 0c-5.326-5.566-11.022-9.473-20.989-13.472C-38.623 4.98-56.881 46.319-59.734 88.743c-13.479-5.996-15.534-15.237-13.049-35.241.118-.81.167-1.556.091-2.184-.057-.471-.685-.608-.921-.194-.274.484-.411 1.104-.437 1.834-1.164 8.701-2.926 15.153-7.168 18.969a6.396 6.396 0 0 1-3.458 1.617c-7.126.925-18.551-4.793-31.547-10.934-1.982-.829-3.313-1.567-3.819-2.865-6.909-45.41 6.345-75.366 6.749-96.051.045-2.344-.278-4.687-1.088-6.886-3.527-9.565-14.294-14.328-27.05-8.678a24.327 24.327 0 0 0-3.2 1.723c-17.885 11.364-27.072 35.778-34.852 65.635l29.903 13.152c3.401-21.571 12.094-53.19 20.947-52.543.818.057 1.579.475 2.1 1.107 1.541 1.871 1.332 5.06-.004 9.1-.35 1.058-.7 2.115-1.008 3.188-11.436 39.875-12.779 74.651-5.151 106.343l23.006 4.333c.167.034.308-.133.247-.297-4.699-12.631-7.818-24.333-9.778-35.18-.22-1.255.118-2.203.989-1.853 7.096 2.846 30.984 16.634 33.175 21.697 2.374 3.752 3.596 10.417 3.337 18.623 0 .072.008.145.019.217.088.563.936.536 1.004-.03 0-.016.004-.035.004-.054.293-8.723 3.063-15.625 5.966-16.294 4.995-.948 10.489 1.571 14.833 4.386a162.552 162.552 0 0 0-.194 11.946l10.672.35c1.472-20.707 7.023-33.882 14.038-43.591-4.398 13.338-5.01 28.195-4.28 43.591l10.809-1.053c-3.314-26.655 2.275-43.957 22.298-56.288a.36.36 0 0 0-.042-.635l-21.134-9.408c-7.072 6.76-13.799 18.025-20.217 33.342C-42.96 40.297-24.638 13.974 0 0" style="fill:#ffa8e0;fill-opacity:1;fill-rule:nonzero;stroke:none" transform="translate(376.435 275.755)"/><path d="M0 0c.868-1.642.817-5.022.445-9.543a14.305 14.305 0 0 0-1.217-4.725c-1.535-3.39-4.011-7.243-6.384-8.789a.32.32 0 0 0-.492.272C-7.434-13.204-5.69-2.488-2.941.4c.849.891 2.366.688 2.941-.4m-2.351-38.148c.624-9.031.654-16.69-1.876-18.409-.293-.198-.65-.297-.997-.225-2.891.62-2.735 10.383-2.583 20.126C10.77-21.267 19.448 19.821 8.667 22.941-3.671 25.79-15.785-.202-14.453-38.353c0-10.71 3.641-37.341 11.021-43.436.883-.73 2.085-.871 3.139-.422 10.143 4.33 10.36 32.026 10.044 59.453z" style="fill:#ffa8e0;fill-opacity:1;fill-rule:nonzero;stroke:none" transform="translate(277.785 313.595)"/><path d="M0 0c-.341.026-.647.236-.917.445-3.645 2.789-.959 8.389 5.574 15.507 3.366 3.143 6.882 8.225 10.104 13.399.142.228.508.145.548-.121C17.945 12.066 7.142-1.427 0 0m38.174 26.167c-2.678-3.557-5.809-5.06-9.389-4.223-2.161.506-3.877 2.146-4.414 4.299-1.206 4.828-.426 13.327-1.51 21.362-1.221 9.028-5.821 21.233-13.392 21.731-11.934.453-18.893-18.261-17.717-42.263L2.869 35.48C1.811 47.232 2.45 55.968 7.552 58.669c1.305.692 2.922.452 3.934-.624 3.812-4.063 3.439-16.656-2.241-24.33-.62-.841-1.24-1.681-1.822-2.549C.384 20.67-9.085 15.83-12.132 6.882a14.476 14.476 0 0 1-.225-8.636C-10.831-7.122-6.829-9.679.43-8.545 10.386-6.418 16.934-.221 20.769 9.218c7.921-7.947 16.99-3.424 26.353 4.341z" style="fill:#ffa8e0;fill-opacity:1;fill-rule:nonzero;stroke:none" transform="translate(303.29 246.27)"/><path d="m0 0 15.323 6.102C5.12 22.997-15.895 34.13-35.702 33.111c-1.215-.062-2.425-.245-3.581-.625C-49.642 29.079-50.776 14.891-42.851 4c10.02-12.744 18.757-13.953 26.92-20.074.47-.353.943-.7 1.425-1.036 8.194-5.7 12.782-11.947 11.466-19.089-.257-1.392-.864-2.709-1.815-3.758-6.796-7.487-18.514-.584-19.893 17.175L-45.292-34.24c8.178-11.604 21.247-20.473 35.335-19.395 1.55.119 3.07.512 4.483 1.159 19.936 9.127 20.986 33.62 4.661 47.427-1.269 1.073-2.662 1.994-4.114 2.801-18.65 10.359-31.243 16.776-27.392 25.574.544 1.242 1.565 2.241 2.842 2.7C-19.32 29.674-1.208 12.905 0 0" style="fill:#ffa8e0;fill-opacity:1;fill-rule:nonzero;stroke:none" transform="translate(399.005 340.536)"/></g></svg>