<svg width="28" height="28" viewBox="0 0 28 28" fill="none" xmlns="http://www.w3.org/2000/svg">
<path d="M1.8125 12.125H26.1875C26.4361 12.125 26.6746 12.0262 26.8504 11.8504C27.0262 11.6746 27.125 11.4361 27.125 11.1875V9.3125C27.125 9.06386 27.0262 8.8254 26.8504 8.64959C26.6746 8.47377 26.4361 8.375 26.1875 8.375H1.8125C1.56386 8.375 1.3254 8.47377 1.14959 8.64959C0.973772 8.8254 0.875 9.06386 0.875 9.3125L0.875 11.1875C0.875 11.4361 0.973772 11.6746 1.14959 11.8504C1.3254 12.0262 1.56386 12.125 1.8125 12.125ZM26.1875 23.375H1.8125C1.56386 23.375 1.3254 23.4738 1.14959 23.6496C0.973772 23.8254 0.875 24.0639 0.875 24.3125L0.875 26.1875C0.875 26.4361 0.973772 26.6746 1.14959 26.8504C1.3254 27.0262 1.56386 27.125 1.8125 27.125H26.1875C26.4361 27.125 26.6746 27.0262 26.8504 26.8504C27.0262 26.6746 27.125 26.4361 27.125 26.1875V24.3125C27.125 24.0639 27.0262 23.8254 26.8504 23.6496C26.6746 23.4738 26.4361 23.375 26.1875 23.375ZM26.3732 0.875H11.0018C10.903 0.874923 10.8052 0.894315 10.714 0.932067C10.6227 0.969819 10.5398 1.02519 10.47 1.09501C10.4002 1.16484 10.3448 1.24774 10.3071 1.33898C10.2693 1.43022 10.2499 1.52801 10.25 1.62676V3.87324C10.2499 3.97199 10.2693 4.06978 10.3071 4.16102C10.3448 4.25226 10.4002 4.33516 10.47 4.40499C10.5398 4.47481 10.6227 4.53018 10.714 4.56793C10.8052 4.60569 10.903 4.62508 11.0018 4.625H26.3732C26.472 4.62508 26.5698 4.60569 26.661 4.56793C26.7523 4.53018 26.8352 4.47481 26.905 4.40499C26.9748 4.33516 27.0302 4.25226 27.0679 4.16102C27.1057 4.06978 27.1251 3.97199 27.125 3.87324V1.62676C27.1251 1.52801 27.1057 1.43022 27.0679 1.33898C27.0302 1.24774 26.9748 1.16484 26.905 1.09501C26.8352 1.02519 26.7523 0.969819 26.661 0.932067C26.5698 0.894315 26.472 0.874923 26.3732 0.875ZM26.3732 15.875H11.0018C10.903 15.8749 10.8052 15.8943 10.714 15.9321C10.6227 15.9698 10.5398 16.0252 10.47 16.095C10.4002 16.1648 10.3448 16.2477 10.3071 16.339C10.2693 16.4302 10.2499 16.528 10.25 16.6268V18.8732C10.2499 18.972 10.2693 19.0698 10.3071 19.161C10.3448 19.2523 10.4002 19.3352 10.47 19.405C10.5398 19.4748 10.6227 19.5302 10.714 19.5679C10.8052 19.6057 10.903 19.6251 11.0018 19.625H26.3732C26.472 19.6251 26.5698 19.6057 26.661 19.5679C26.7523 19.5302 26.8352 19.4748 26.905 19.405C26.9748 19.3352 27.0302 19.2523 27.0679 19.161C27.1057 19.0698 27.1251 18.972 27.125 18.8732V16.6268C27.1251 16.528 27.1057 16.4302 27.0679 16.339C27.0302 16.2477 26.9748 16.1648 26.905 16.095C26.8352 16.0252 26.7523 15.9698 26.661 15.9321C26.5698 15.8943 26.472 15.8749 26.3732 15.875Z" fill="white"/>
</svg>
