<svg width="20" height="19" viewBox="0 0 20 19" fill="none" xmlns="http://www.w3.org/2000/svg">
<path fill-rule="evenodd" clip-rule="evenodd" d="M5.20236 0C7.36118 0 9.21412 1.46823 10 3.33882C10.7871 1.46823 12.6376 0 14.7965 0C17.6753 0.00470588 20.0047 2.32941 20 5.18941C20 10.7282 10 18.1812 10 18.1812C10 18.1812 7.12116e-06 10.7294 7.12116e-06 5.19059C-0.00469876 2.33059 2.32354 0.00705929 5.20236 0.00117695V0ZM14.0259 12.8094C12.7564 14.1009 11.4121 15.3168 10 16.4506C8.59101 15.3135 7.24731 14.0979 5.9753 12.8094C4.35765 11.1565 3.08118 9.55411 2.27765 8.08941C1.67177 6.9847 1.36354 6.0047 1.36354 5.18941C1.36001 3.08117 3.07765 1.36823 5.20471 1.36353C6.70118 1.36353 8.12235 2.39176 8.74235 3.86588C8.97412 4.41647 9.47529 4.99294 9.98118 5C10.4988 5.00706 11.02 4.43059 11.2565 3.86706C11.8776 2.39059 13.2988 1.36353 14.7976 1.36353C16.9223 1.36706 18.64 3.08117 18.6365 5.18706C18.6365 6.0047 18.3282 6.9847 17.7223 8.09058C16.9188 9.55411 15.6424 11.1565 14.0259 12.8082V12.8094Z" fill="#FF5B1E"/>
<path d="M19.501 5.49898C16.501 11.9992 14.001 12.9985 10.001 17.9985C6.50097 13.4985 2.5 12.5 1.00097 5.99854C0.5 1.5 5.00097 -1.50016 10.001 3.99956C14.001 -1.50016 18.001 -0.000510216 19.501 5.49898Z" fill="#FF5B1E"/>
</svg>
