<svg width="21" height="19" viewBox="0 0 21 19" fill="none" xmlns="http://www.w3.org/2000/svg">
<path d="M0.576172 18.577V3.616C0.576172 3.168 0.733505 2.78667 1.04817 2.472C1.36284 2.15733 1.74384 2 2.19117 2H11.9612C12.4078 2 12.7888 2.15733 13.1042 2.472C13.4188 2.78667 13.5762 3.168 13.5762 3.616V3.867C13.3808 3.96033 13.2032 4.067 13.0432 4.187C12.8832 4.30633 12.7275 4.43633 12.5762 4.577V3.616C12.5762 3.436 12.5185 3.28833 12.4032 3.173C12.2878 3.05767 12.1398 3 11.9592 3H2.19117C2.01184 3 1.86451 3.05767 1.74917 3.173C1.63384 3.28833 1.57617 3.436 1.57617 3.616V15H11.9612C12.1405 15 12.2878 14.9423 12.4032 14.827C12.5185 14.7117 12.5762 14.5643 12.5762 14.385V11.423C12.7275 11.5643 12.8832 11.6943 13.0432 11.813C13.2032 11.933 13.3808 12.0397 13.5762 12.133V14.385C13.5762 14.8317 13.4188 15.2127 13.1042 15.528C12.7895 15.8427 12.4085 16 11.9612 16H3.15317L0.576172 18.577ZM4.07617 12.5H7.07617V11.5H4.07617V12.5ZM15.6152 10.5C14.9225 10.5 14.3325 10.2567 13.8452 9.77C13.3578 9.28333 13.1145 8.69333 13.1152 8C13.1158 7.30667 13.3592 6.71667 13.8452 6.23C14.3312 5.74333 14.9212 5.5 15.6152 5.5C15.9392 5.5 16.2135 5.54567 16.4382 5.637C16.6628 5.72833 16.8885 5.882 17.1152 6.098V0.5H20.1152V1.5H18.1152V8C18.1152 8.69267 17.8715 9.28267 17.3842 9.77C16.8968 10.2567 16.3078 10.5 15.6152 10.5ZM4.07617 9.5H10.0762V8.5H4.07617V9.5ZM4.07617 6.5H10.0762V5.5H4.07617V6.5Z" fill="#999999"/>
</svg>
